{
  "accessors": [
    {
      "bufferView": 2,
      "componentType": 5126,
      "count": 32256,
      "max": [
        0.22636820375919342,
        0.24148410558700562,
        0.14134849607944489
      ],
      "min": [
        -0.23161520063877106,
        -0.13646799325942993,
        -0.12138479948043823
      ],
      "type": "VEC3"
    },
    {
      "bufferView": 2,
      "byteOffset": 387072,
      "componentType": 5126,
      "count": 32256,
      "max": [
        0.9999682307243347,
        0.9999934434890747,
        0.9999824166297913
      ],
      "min": [
        -0.9999211430549622,
        -1.0,
        -0.9997761845588684
      ],
      "type": "VEC3"
    },
    {
      "bufferView": 1,
      "componentType": 5126,
      "count": 32256,
      "max": [
        0.654296875,
        0.9867039918899536
      ],
      "min": [
        0.005203499924391508,
        0.012577000074088573
      ],
      "type": "VEC2"
    },
    {
      "bufferView": 0,
      "componentType": 5125,
      "count": 177174,
      "type": "SCALAR"
    }
  ],
  "asset": {
    "extras": {
      "author": "EntropyNine (https://sketchfab.com/entropy9ine)",
      "license": "CC-BY-4.0 (http://creativecommons.org/licenses/by/4.0/)",
      "source": "https://sketchfab.com/3d-models/jeff-bezos-a3e775543f2d4887922e241856b007d7",
      "title": "Jeff Bezos"
    },
    "generator": "Sketchfab-12.41.0",
    "version": "2.0"
  },
  "bufferViews": [
    {
      "buffer": 0,
      "byteLength": 708696,
      "name": "floatBufferViews",
      "target": 34963
    },
    {
      "buffer": 0,
      "byteLength": 258048,
      "byteOffset": 708696,
      "byteStride": 8,
      "name": "floatBufferViews",
      "target": 34962
    },
    {
      "buffer": 0,
      "byteLength": 774144,
      "byteOffset": 966744,
      "byteStride": 12,
      "name": "floatBufferViews",
      "target": 34962
    }
  ],
  "buffers": [
    {
      "byteLength": 1740888,
      "uri": "bezos.bin"
    }
  ],
  "images": [
    {
      "uri": "textures/modelmaterial_1_baseColor.png"
    }
  ],
  "materials": [
    {
      "doubleSided": true,
      "name": "modelmaterial_1",
      "pbrMetallicRoughness": {
        "baseColorTexture": {
          "index": 0
        },
        "metallicFactor": 0.0
      }
    }
  ],
  "meshes": [
    {
      "name": "JeffBezos_model:material_1_0",
      "primitives": [
        {
          "attributes": {
            "NORMAL": 1,
            "POSITION": 0,
            "TEXCOORD_0": 2
          },
          "indices": 3,
          "material": 0,
          "mode": 4
        }
      ]
    }
  ],
  "nodes": [
    {
      "children": [
        1
      ],
      "matrix": [
        1.0,
        0.0,
        0.0,
        0.0,
        0.0,
        2.220446049250313e-16,
        -1.0,
        0.0,
        0.0,
        1.0,
        2.220446049250313e-16,
        0.0,
        0.0,
        0.0,
        0.0,
        1.0
      ],
      "name": "Sketchfab_model"
    },
    {
      "children": [
        2
      ],
      "matrix": [
        0.009999999776482582,
        0.0,
        0.0,
        0.0,
        0.0,
        0.0,
        0.009999999776482582,
        0.0,
        0.0,
        -0.009999999776482582,
        0.0,
        0.0,
        0.0,
        0.0,
        0.0,
        1.0
      ],
      "name": "967cd5b1bf774c5bbe9e3150b99137a4.fbx"
    },
    {
      "children": [
        3
      ],
      "name": "RootNode"
    },
    {
      "children": [
        4
      ],
      "matrix": [
        100.0,
        0.0,
        0.0,
        0.0,
        0.0,
        100.0,
        0.0,
        0.0,
        0.0,
        0.0,
        100.0,
        0.0,
        0.0,
        13.78167724609375,
        0.0,
        1.0
      ],
      "name": "JeffBezos"
    },
    {
      "mesh": 0,
      "name": "JeffBezos_model:material_1_0"
    }
  ],
  "samplers": [
    {
      "magFilter": 9729,
      "minFilter": 9987,
      "wrapS": 10497,
      "wrapT": 10497
    }
  ],
  "scene": 0,
  "scenes": [
    {
      "name": "Sketchfab_Scene",
      "nodes": [
        0
      ]
    }
  ],
  "textures": [
    {
      "sampler": 0,
      "source": 0
    }
  ]
}
